<svg width="15" height="15" viewBox="0 0 15 15" fill="none" xmlns="http://www.w3.org/2000/svg">
<path fill-rule="evenodd" clip-rule="evenodd" d="M14.7802 13.719C15.0732 14.012 15.0732 14.4872 14.7802 14.7802C14.4872 15.0732 14.0121 15.0732 13.719 14.7802L7.5 8.56024L1.28098 14.7802C0.98794 15.0732 0.512829 15.0732 0.21979 14.7802C-0.0732495 14.4872 -0.0732495 14.012 0.21979 13.719L6.43975 7.49999L0.21979 1.28097C-0.0732495 0.987928 -0.0732495 0.512818 0.21979 0.219778C0.512829 -0.0732609 0.98794 -0.0732609 1.28098 0.219778L7.5 6.43974L13.719 0.219778C14.0121 -0.0732609 14.4872 -0.0732609 14.7802 0.219778C15.0732 0.512818 15.0732 0.987928 14.7802 1.28097L8.56025 7.49999L14.7802 13.719Z" fill="#141414"/>
</svg>
