<svg width="17" height="14" viewBox="0 0 17 14" fill="none" xmlns="http://www.w3.org/2000/svg">
<path fill-rule="evenodd" clip-rule="evenodd" d="M16.5455 0.636364V3.81818C16.5455 4.16964 16.2605 4.45455 15.9091 4.45455C15.5576 4.45455 15.2727 4.16964 15.2727 3.81818V1.27273H12.7273C12.3758 1.27273 12.0909 0.987818 12.0909 0.636364C12.0909 0.28491 12.3758 0 12.7273 0H15.9091C16.2605 0 16.5455 0.28491 16.5455 0.636364ZM3.81818 12.7273H1.27273V10.1818C1.27273 9.83036 0.987817 9.54545 0.636364 9.54545C0.28491 9.54545 0 9.83036 0 10.1818V13.3636C0 13.7151 0.28491 14 0.636364 14H3.81818C4.16964 14 4.45455 13.7151 4.45455 13.3636C4.45455 13.0122 4.16964 12.7273 3.81818 12.7273ZM15.9091 9.54545C15.5576 9.54545 15.2727 9.83036 15.2727 10.1818V12.7273H12.7273C12.3758 12.7273 12.0909 13.0122 12.0909 13.3636C12.0909 13.7151 12.3758 14 12.7273 14H15.9091C16.2605 14 16.5455 13.7151 16.5455 13.3636V10.1818C16.5455 9.83036 16.2605 9.54545 15.9091 9.54545ZM0.636364 4.45455C0.987817 4.45455 1.27273 4.16964 1.27273 3.81818V1.27273H3.81818C4.16964 1.27273 4.45455 0.987818 4.45455 0.636364C4.45455 0.28491 4.16964 0 3.81818 0H0.636364C0.28491 0 0 0.28491 0 0.636364V3.81818C0 4.16964 0.28491 4.45455 0.636364 4.45455ZM4.45455 3.18182C4.10309 3.18182 3.81818 3.46673 3.81818 3.81818V10.1818C3.81818 10.5333 4.10309 10.8182 4.45455 10.8182C4.806 10.8182 5.09091 10.5333 5.09091 10.1818V3.81818C5.09091 3.46673 4.806 3.18182 4.45455 3.18182ZM12.7273 10.1818V3.81818C12.7273 3.46673 12.4424 3.18182 12.0909 3.18182C11.7395 3.18182 11.4545 3.46673 11.4545 3.81818V10.1818C11.4545 10.5333 11.7395 10.8182 12.0909 10.8182C12.4424 10.8182 12.7273 10.5333 12.7273 10.1818ZM9.54545 3.18182C9.194 3.18182 8.90909 3.46673 8.90909 3.81818V10.1818C8.90909 10.5333 9.194 10.8182 9.54545 10.8182C9.89691 10.8182 10.1818 10.5333 10.1818 10.1818V3.81818C10.1818 3.46673 9.89691 3.18182 9.54545 3.18182ZM7 3.18182C6.64855 3.18182 6.36364 3.46673 6.36364 3.81818V10.1818C6.36364 10.5333 6.64855 10.8182 7 10.8182C7.35145 10.8182 7.63636 10.5333 7.63636 10.1818V3.81818C7.63636 3.46673 7.35145 3.18182 7 3.18182Z" fill="white"/>
</svg>
