<svg width="20" height="20" viewBox="0 0 20 20" fill="none" xmlns="http://www.w3.org/2000/svg">
<path fill-rule="evenodd" clip-rule="evenodd" d="M9.99857 5.41213C7.46555 5.41213 5.41213 7.46555 5.41213 9.99857C5.41213 12.5316 7.46555 14.585 9.99857 14.585C12.5316 14.585 14.585 12.5316 14.585 9.99857C14.5824 7.46664 12.5305 5.41476 9.99857 5.41213ZM9.99857 13.0562C8.30989 13.0562 6.94094 11.6873 6.94094 9.99857C6.94094 8.30989 8.30989 6.94094 9.99857 6.94094C11.6873 6.94094 13.0562 8.30989 13.0562 9.99857C13.0562 11.6873 11.6873 13.0562 9.99857 13.0562ZM18.407 10.205C18.4109 10.0674 18.4109 9.92977 18.407 9.79218L19.8327 8.01111C19.9843 7.82146 20.0368 7.57108 19.9741 7.33652C19.7404 6.45803 19.3908 5.61455 18.9345 4.82831C18.8134 4.61968 18.6008 4.48049 18.3612 4.45279L16.0947 4.20054C16.0004 4.10117 15.9049 4.00562 15.8081 3.91389L15.5405 1.64169C15.5126 1.40185 15.373 1.1893 15.1641 1.06838C14.3775 0.612935 13.5341 0.263684 12.6558 0.0297428C12.4211 -0.0326595 12.1707 0.0201869 11.9813 0.172114L10.205 1.59009C10.0674 1.59009 9.92977 1.59009 9.79218 1.59009L8.01111 0.167336C7.82146 0.0157422 7.57108 -0.036746 7.33652 0.0259207C6.45817 0.260046 5.61475 0.609625 4.82831 1.06551C4.61968 1.18665 4.48049 1.39917 4.45279 1.63882L4.20054 3.90911C4.10117 4.00402 4.00562 4.09957 3.91389 4.19576L1.64169 4.45662C1.40185 4.48452 1.1893 4.6241 1.06838 4.83309C0.612935 5.61963 0.263684 6.46303 0.0297428 7.3413C-0.0326595 7.57601 0.0201869 7.82641 0.172114 8.01589L1.59009 9.79218C1.59009 9.92977 1.59009 10.0674 1.59009 10.205L0.167336 11.986C0.0157422 12.1757 -0.036746 12.4261 0.0259207 12.6606C0.259628 13.5391 0.609229 14.3826 1.06551 15.1688C1.18665 15.3775 1.39917 15.5167 1.63882 15.5443L3.90529 15.7966C4.0002 15.896 4.09575 15.9915 4.19194 16.0833L4.45662 18.3555C4.48452 18.5953 4.6241 18.8078 4.83309 18.9288C5.61963 19.3842 6.46303 19.7335 7.3413 19.9674C7.57601 20.0298 7.82641 19.977 8.01589 19.825L9.79218 18.407C9.92977 18.4109 10.0674 18.4109 10.205 18.407L11.986 19.8327C12.1757 19.9843 12.4261 20.0368 12.6606 19.9741C13.5391 19.7404 14.3826 19.3908 15.1688 18.9345C15.3775 18.8134 15.5167 18.6008 15.5443 18.3612L15.7966 16.0947C15.896 16.0004 15.9915 15.9049 16.0833 15.8081L18.3555 15.5405C18.5953 15.5126 18.8078 15.373 18.9288 15.1641C19.3842 14.3775 19.7335 13.5341 19.9674 12.6558C20.0298 12.4211 19.977 12.1707 19.825 11.9813L18.407 10.205ZM16.8687 9.58388C16.8849 9.8601 16.8849 10.137 16.8687 10.4133C16.8573 10.6024 16.9165 10.789 17.0349 10.9369L18.3908 12.631C18.2352 13.1254 18.036 13.6051 17.7955 14.0643L15.6361 14.3089C15.448 14.3297 15.2744 14.4196 15.1488 14.5611C14.9648 14.768 14.7689 14.9639 14.5621 15.1478C14.4206 15.2734 14.3307 15.4471 14.3098 15.6351L14.07 17.7927C13.6109 18.0333 13.1312 18.2325 12.6367 18.3879L10.9417 17.0321C10.806 16.9237 10.6375 16.8647 10.4639 16.8649H10.418C10.1418 16.8811 9.86488 16.8811 9.58866 16.8649C9.39954 16.8535 9.21294 16.9127 9.06504 17.0311L7.36614 18.3879C6.8717 18.2324 6.39206 18.0331 5.93288 17.7927L5.68827 15.6361C5.66739 15.448 5.57751 15.2744 5.43601 15.1488C5.22915 14.9648 5.03326 14.7689 4.84933 14.5621C4.72371 14.4206 4.55008 14.3307 4.36202 14.3098L2.20448 14.069C1.96388 13.6099 1.76466 13.1303 1.6092 12.6358L2.96507 10.9407C3.08346 10.7928 3.14271 10.6062 3.13133 10.4171C3.11508 10.1409 3.11508 9.86392 3.13133 9.5877C3.14271 9.39859 3.08346 9.21199 2.96507 9.06408L1.6092 7.36614C1.76478 6.8717 1.96399 6.39206 2.20448 5.93288L4.36107 5.68827C4.54912 5.66739 4.72276 5.57751 4.84838 5.43601C5.0323 5.22915 5.2282 5.03326 5.43506 4.84933C5.57712 4.72363 5.66737 4.5496 5.68827 4.36107L5.9281 2.20448C6.38723 1.96388 6.86688 1.76466 7.36136 1.6092L9.05644 2.96507C9.20434 3.08346 9.39094 3.14271 9.58006 3.13133C9.85628 3.11508 10.1332 3.11508 10.4094 3.13133C10.5986 3.14271 10.7852 3.08346 10.9331 2.96507L12.631 1.6092C13.1254 1.76478 13.6051 1.96399 14.0643 2.20448L14.3089 4.36107C14.3297 4.54912 14.4196 4.72276 14.5611 4.84838C14.768 5.0323 14.9639 5.2282 15.1478 5.43506C15.2734 5.57656 15.4471 5.66644 15.6351 5.68731L17.7927 5.92715C18.0333 6.38627 18.2325 6.86592 18.3879 7.36041L17.0321 9.05548C16.9125 9.20463 16.8532 9.39315 16.8658 9.58388H16.8687Z" fill="#0D0D0D"/>
</svg>
