<svg width="20" height="20" viewBox="0 0 20 20" fill="none" xmlns="http://www.w3.org/2000/svg">
<path fill-rule="evenodd" clip-rule="evenodd" d="M9.99855 5.41213C7.46553 5.41213 5.41211 7.46555 5.41211 9.99857C5.41211 12.5316 7.46553 14.585 9.99855 14.585C12.5316 14.585 14.585 12.5316 14.585 9.99857C14.5824 7.46664 12.5305 5.41476 9.99855 5.41213ZM9.99855 13.0562C8.30987 13.0562 6.94092 11.6873 6.94092 9.99857C6.94092 8.30989 8.30987 6.94094 9.99855 6.94094C11.6872 6.94094 13.0562 8.30989 13.0562 9.99857C13.0562 11.6873 11.6872 13.0562 9.99855 13.0562ZM18.407 10.205C18.4109 10.0674 18.4109 9.92977 18.407 9.79218L19.8327 8.01111C19.9842 7.82146 20.0367 7.57108 19.9741 7.33652C19.7404 6.45803 19.3908 5.61455 18.9345 4.82831C18.8133 4.61968 18.6008 4.48049 18.3612 4.45279L16.0947 4.20054C16.0004 4.10117 15.9049 4.00562 15.808 3.91389L15.5405 1.64169C15.5126 1.40185 15.373 1.1893 15.164 1.06838C14.3775 0.612935 13.5341 0.263684 12.6558 0.0297428C12.4211 -0.0326595 12.1707 0.0201869 11.9812 0.172114L10.2049 1.59009C10.0674 1.59009 9.92976 1.59009 9.79216 1.59009L8.01109 0.167336C7.82145 0.0157422 7.57107 -0.036746 7.33651 0.0259207C6.45815 0.260046 5.61473 0.609625 4.82829 1.06551C4.61967 1.18665 4.48047 1.39917 4.45278 1.63882L4.20052 3.90911C4.10115 4.00402 4.0056 4.09957 3.91387 4.19576L1.64167 4.45662C1.40184 4.48452 1.18928 4.6241 1.06837 4.83309C0.612919 5.61963 0.263669 6.46303 0.0297272 7.3413C-0.032675 7.57601 0.0201713 7.82641 0.172098 8.01589L1.59007 9.79218C1.59007 9.92977 1.59007 10.0674 1.59007 10.205L0.167321 11.986C0.0157266 12.1757 -0.0367615 12.4261 0.0259051 12.6606C0.259613 13.5391 0.609214 14.3826 1.0655 15.1688C1.18664 15.3775 1.39915 15.5167 1.6388 15.5443L3.90527 15.7966C4.00019 15.896 4.09574 15.9915 4.19192 16.0833L4.4566 18.3555C4.4845 18.5953 4.62408 18.8078 4.83307 18.9288C5.61961 19.3842 6.46302 19.7335 7.34128 19.9674C7.576 20.0298 7.82639 19.977 8.01587 19.825L9.79216 18.407C9.92976 18.4109 10.0674 18.4109 10.2049 18.407L11.986 19.8327C12.1757 19.9843 12.426 20.0368 12.6606 19.9741C13.5391 19.7404 14.3826 19.3908 15.1688 18.9345C15.3774 18.8134 15.5166 18.6008 15.5443 18.3612L15.7966 16.0947C15.896 16.0004 15.9915 15.9049 16.0832 15.8081L18.3554 15.5405C18.5953 15.5126 18.8078 15.373 18.9287 15.1641C19.3842 14.3775 19.7334 13.5341 19.9674 12.6558C20.0298 12.4211 19.9769 12.1707 19.825 11.9813L18.407 10.205ZM16.8687 9.58388C16.8849 9.8601 16.8849 10.137 16.8687 10.4133C16.8573 10.6024 16.9165 10.789 17.0349 10.9369L18.3908 12.631C18.2352 13.1254 18.036 13.6051 17.7955 14.0643L15.6361 14.3089C15.448 14.3297 15.2744 14.4196 15.1487 14.5611C14.9648 14.768 14.7689 14.9639 14.5621 15.1478C14.4206 15.2734 14.3307 15.4471 14.3098 15.6351L14.07 17.7927C13.6109 18.0333 13.1312 18.2325 12.6367 18.3879L10.9416 17.0321C10.806 16.9237 10.6375 16.8647 10.4639 16.8649H10.418C10.1418 16.8811 9.86486 16.8811 9.58864 16.8649C9.39953 16.8535 9.21293 16.9127 9.06502 17.0311L7.36613 18.3879C6.87168 18.2324 6.39204 18.0331 5.93286 17.7927L5.68825 15.6361C5.66738 15.448 5.5775 15.2744 5.436 15.1488C5.22914 14.9648 5.03324 14.7689 4.84932 14.5621C4.7237 14.4206 4.55006 14.3307 4.36201 14.3098L2.20447 14.069C1.96386 13.6099 1.76465 13.1303 1.60918 12.6358L2.96505 10.9407C3.08344 10.7928 3.14269 10.6062 3.13131 10.4171C3.11507 10.1409 3.11507 9.86392 3.13131 9.5877C3.14269 9.39859 3.08344 9.21199 2.96505 9.06408L1.60918 7.36614C1.76476 6.8717 1.96398 6.39206 2.20447 5.93288L4.36105 5.68827C4.54911 5.66739 4.72274 5.57751 4.84836 5.43601C5.03229 5.22915 5.22818 5.03326 5.43504 4.84933C5.5771 4.72363 5.66735 4.5496 5.68825 4.36107L5.92809 2.20448C6.38721 1.96388 6.86686 1.76466 7.36135 1.6092L9.05642 2.96507C9.20433 3.08346 9.39093 3.14271 9.58004 3.13133C9.85626 3.11508 10.1332 3.11508 10.4094 3.13133C10.5985 3.14271 10.7851 3.08346 10.933 2.96507L12.631 1.6092C13.1254 1.76478 13.6051 1.96399 14.0642 2.20448L14.3089 4.36107C14.3297 4.54912 14.4196 4.72276 14.5611 4.84838C14.768 5.0323 14.9639 5.2282 15.1478 5.43506C15.2734 5.57656 15.447 5.66644 15.6351 5.68731L17.7926 5.92715C18.0332 6.38627 18.2325 6.86592 18.3879 7.36041L17.0321 9.05548C16.9125 9.20463 16.8532 9.39315 16.8658 9.58388H16.8687Z" fill="#FFFFFF"/>
</svg>
